HIERARCHY
ROOT Hips
{
	OFFSET 0.000000 0.000000 0.000000 
	CHANNELS 6 Xposition Yposition Zposition Yrotation Zrotation Xrotation 
	JOINT Lumbar
	{
		OFFSET 0.000000 0.000000 0.000000 
		CHANNELS 3 Zrotation Xrotation Yrotation
		JOINT Neck
		{
			OFFSET 0.000000 0.445665 0.000000 
			CHANNELS 3 Zrotation Xrotation Yrotation
			End Site
			{
				OFFSET 0.000000 0.227535 0.000000 
			}
		}
		JOINT RightShoulder
		{
			OFFSET 0.019635 0.377685 0.194865 
			CHANNELS 3 Zrotation Xrotation Yrotation
			JOINT RightElbow
			{
				OFFSET 0.000000 -0.243375 0.000000 
				CHANNELS 2 Zrotation Yrotation
				JOINT RightWrist
				{
					OFFSET 0.000000 -0.264825 0.000000 
					CHANNELS 2 Zrotation Xrotation
					End Site
					{
						OFFSET 0.006600 -0.176220 0.000990 
					}
				}
			}
		}
		JOINT LeftShoulder
		{
			OFFSET 0.019635 0.377685 -0.194865 
			CHANNELS 3 Zrotation Xrotation Yrotation
			JOINT LeftElbow
			{
				OFFSET 0.000000 -0.243375 0.000000 
				CHANNELS 2 Zrotation Yrotation
				JOINT LeftWrist
				{
					OFFSET 0.000000 -0.264825 0.000000 
					CHANNELS 2 Zrotation Xrotation
					End Site
					{
						OFFSET 0.006600 -0.176220 -0.000990 
					}
				}
			}
		}
	}
	JOINT RightHip
	{
		OFFSET 0.052140 -0.069960 0.075570 
		CHANNELS 3 Zrotation Xrotation Yrotation
		JOINT RightKnee
		{
			OFFSET 0.000000 -0.402270 0.000000 
			CHANNELS 1 Zrotation
			JOINT RightAnkle
			{
				OFFSET 0.000000 -0.404085 0.000000 
				CHANNELS 3 Zrotation Xrotation Yrotation
				End Site
				{
					OFFSET 0.204105 -0.089430 0.008415 
				}
			}
		}
	}
	JOINT LeftHip
	{
		OFFSET 0.052140 -0.069960 -0.075570 
		CHANNELS 3 Zrotation Xrotation Yrotation
		JOINT LeftKnee
		{
			OFFSET 0.000000 -0.402270 0.000000 
			CHANNELS 1 Zrotation
			JOINT LeftAnkle
			{
				OFFSET 0.000000 -0.404085 0.000000 
				CHANNELS 3 Zrotation Xrotation Yrotation
				End Site
				{
					OFFSET 0.204105 -0.089430 -0.008415 
				}
			}
		}
	}
}
MOTION
Frames: 22
Frame Time: 0.02
-0.88241 -0.02933 0.11228 -222.44731 -80.41249 -35.72201 -4.7572 3.21963 2.07406 20.37484 -20.65616 -0.83046 91.09477 4.3787 35.26197 10.40361 81.72742 -3.96807 0.19817 81.05986 -0.20406 -35.69179 18.71463 -81.64133 -0.87661 4.10467 93.27642 -11.23369 3.10807 -34.25524 -6.67615 -3.52401 -2.4731 111.56929 6.86056 13.36044 -50.93924 -6.93712 1.4703 1.37202
-0.88185 -0.02916 0.11089 -220.43929 -79.74013 -33.70629 -4.23059 2.97553 2.13195 20.39446 -20.46874 -0.83047 89.46269 3.67286 36.04071 11.74192 82.2573 -3.68518 0.00915 79.44583 0.06037 -35.87735 19.67472 -81.62915 -0.6494 4.28977 92.33605 -10.87328 3.55952 -34.00779 -6.70908 -3.58941 -2.50849 110.75713 6.64336 12.40068 -50.77604 -6.90721 1.56461 1.42308
-0.88136 -0.02908 0.10955 -219.60907 -79.07675 -32.83395 -3.59547 2.72011 2.22813 20.36926 -20.28526 -0.83048 87.79924 2.90733 37.04853 13.24939 82.8145 -3.41216 -0.20544 77.83776 0.36273 -36.12541 20.66736 -81.56839 -0.4727 4.45761 91.43382 -10.40584 4.31334 -33.68238 -6.75852 -3.69028 -2.56379 110.02704 6.36003 11.25618 -50.59927 -6.87108 1.68239 1.48718
-0.88087 -0.02896 0.10819 -218.22179 -78.40263 -31.42282 -3.01234 2.47324 2.30479 20.36227 -20.09713 -0.83048 86.14337 2.16597 37.92985 14.69207 83.33993 -3.12619 -0.4059 76.22582 0.65474 -36.34946 21.64878 -81.52995 -0.26183 4.63707 90.5041 -10.00206 4.88017 -33.39226 -6.79823 -3.76916 -2.60674 109.2454 6.12414 10.235 -50.42857 -6.83873 1.78491 1.54283
-0.88025 -0.02887 0.10682 -216.90873 -77.75254 -30.07453 -2.42266 2.21191 2.39119 20.36391 -19.92005 -0.83049 84.5143 1.43474 38.89433 16.09037 83.93755 -2.87341 -0.61592 74.61718 0.91743 -36.5574 22.61559 -81.48705 -0.09323 4.80216 89.61446 -9.53802 5.65065 -33.10732 -6.84668 -3.87218 -2.66317 108.51916 5.81704 9.05429 -50.26059 -6.80216 1.90608 1.60872
-0.87992 -0.02872 0.10547 -215.72972 -77.05592 -28.87589 -1.81836 1.97786 2.46613 20.33731 -19.72075 -0.8305 82.82211 0.66873 39.74538 17.61872 84.39518 -2.55641 -0.81141 73.00465 1.25049 -36.81524 23.62041 -81.44317 0.14789 4.99186 88.65075 -9.17311 6.06973 -32.79069 -6.88119 -3.93336 -2.69633 107.69863 5.63839 8.15228 -50.08248 -6.77285 1.99519 1.65704
-0.88032 -0.0284 0.10415 -214.60789 -76.23054 -27.78644 -1.20854 1.82441 2.4996 20.24082 -19.46546 -0.83051 80.9683 -0.17338 40.21463 19.46467 84.45664 -2.03991 -0.9739 71.36847 1.76651 -37.16562 24.72227 -81.40898 0.62141 5.26121 87.4818 -9.10458 5.46086 -32.41328 -6.87203 -3.87326 -2.6616 106.59997 5.8731 8.1569 -49.88383 -6.76686 1.97804 1.64731
-0.88102 -0.028 0.10284 -213.58735 -75.35819 -26.81522 -0.58569 1.69848 2.52015 20.11782 -19.18664 -0.83052 79.05157 -1.04887 40.56559 21.43437 84.37808 -1.46215 -1.11879 69.73053 2.35263 -37.56885 25.86141 -81.37577 1.1656 5.55435 86.23574 -9.13933 4.4872 -32.0046 -6.8486 -3.76956 -2.60269 105.40357 6.23273 8.43387 -49.67427 -6.76817 1.92968 1.62044
-0.88161 -0.02763 0.10153 -212.53865 -74.50679 -25.80765 0.03729 1.55827 2.54686 20.00911 -18.91475 -0.83053 77.16037 -1.91239 40.98044 23.34708 84.36693 -0.92561 -1.26314 68.1008 2.90779 -37.96689 26.98305 -81.34239 1.66384 5.83166 85.02008 -9.12911 3.66915 -31.60481 -6.83246 -3.6838 -2.554 104.25147 6.50616 8.52306 -49.46693 -6.76502 1.90383 1.60576
-0.88207 -0.02729 0.10021 -211.45448 -73.65765 -24.76506 0.63865 1.42481 2.5739 19.89019 -18.65914 -0.83053 75.28019 -2.76521 41.36044 25.2706 84.34083 -0.33324 -1.44398 66.43938 3.45975 -38.288 28.10716 -81.30653 2.21833 6.12981 83.826 -9.10842 2.89901 -31.22523 -6.81328 -3.60652 -2.50888 103.10385 6.89706 8.86605 -49.27133 -6.76634 1.84496 1.57367
-0.88287 -0.02687 0.0989 -210.45397 -72.79212 -23.81019 1.28648 1.28439 2.59643 19.7858 -18.36362 -0.83054 73.36355 -3.64659 41.78183 27.19676 84.31205 0.15792 -1.54484 64.84424 4.03547 -38.7807 29.23585 -81.27619 2.67367 6.39013 82.56726 -9.13355 1.94538 -30.79663 -6.79709 -3.50161 -2.45076 101.92113 7.07939 8.75997 -49.04806 -6.76032 1.84551 1.57273
-0.88446 -0.02628 0.09763 -209.64636 -71.8963 -23.05095 2.06076 1.11457 2.61153 19.73692 -17.96681 -0.83054 71.35318 -4.60541 42.34632 29.11614 84.31226 0.35109 -1.42507 63.42633 4.65116 -39.73637 30.35667 -81.26545 2.83294 6.54276 81.15633 -9.27649 0.51408 -30.24526 -6.79038 -3.32348 -2.35879 100.67758 6.6077 7.24069 -48.7579 -6.73086 2.03185 1.66936
-0.88638 -0.02561 0.09636 -208.91604 -70.98471 -22.37358 2.88014 0.93754 2.62198 19.70215 -17.53016 -0.83055 69.31008 -5.59009 42.95491 31.03007 84.31407 0.44094 -1.22642 62.07658 5.28966 -40.86173 31.4827 -81.25957 2.89109 6.65613 79.68129 -9.45942 -1.07971 -29.64538 -6.78749 -3.12027 -2.25518 99.39916 5.93093 5.28067 -48.43904 -6.69404 2.27635 1.7965
-0.88817 -0.02496 0.09509 -208.15321 -70.07833 -21.66449 3.67803 0.76601 2.63314 19.65525 -17.10951 -0.83055 67.28765 -6.5584 43.54295 32.9349 84.31371 0.58051 -1.066 60.69935 5.92318 -41.90827 32.61373 -81.24881 2.99918 6.7858 78.23068 -9.6137 -2.56085 -29.06447 -6.78427 -2.9334 -2.15933 98.12866 5.37968 3.59351 -48.12889 -6.66152 2.48488 1.90477
-0.88988 -0.02436 0.09383 -207.38374 -69.17953 -20.93676 4.48246 0.58576 2.64979 19.63141 -16.69642 -0.83055 65.23837 -7.54806 44.13138 34.89277 84.31474 0.71078 -0.89346 59.30621 6.53671 -42.96573 33.71527 -81.24958 3.09325 6.92266 76.79775 -9.81567 -4.21759 -28.4942 -6.77469 -2.72425 -2.05224 96.88931 4.69667 1.6103 -47.8367 -6.62523 2.73253 2.03354
-0.89183 -0.02365 0.09255 -206.64486 -68.26064 -20.26603 5.28153 0.42196 2.65407 19.56341 -16.25904 -0.83056 63.23828 -8.49815 44.72817 36.7376 84.31484 0.83478 -0.72949 57.96378 7.19598 -44.03773 34.87862 -81.22714 3.19115 7.0351 75.31313 -9.92657 -5.54345 -27.89215 -6.77937 -2.55601 -1.96608 95.57673 4.23728 0.13438 -47.50038 -6.59492 2.91302 2.12713
-0.89438 -0.02268 0.09123 -205.97078 -67.30093 -19.72716 6.07431 0.30214 2.62535 19.36881 -15.75919 -0.83056 61.38066 -9.33883 45.3605 38.26774 84.31451 0.96886 -0.59249 56.73365 7.97896 -45.12759 36.21425 -81.14083 3.32815 7.08773 73.70856 -9.77517 -5.90571 -27.20316 -6.82314 -2.50805 -1.94097 94.08302 4.44875 0.17526 -47.04976 -6.58316 2.89306 2.11572
-0.89716 -0.02161 0.0899 -205.32456 -66.32018 -19.24322 6.85664 0.19947 2.58434 19.12962 -15.23744 -0.83057 59.57434 -10.13731 45.99521 39.68457 84.31335 1.09949 -0.46971 55.55456 8.80618 -46.22214 37.61108 -81.02962 3.47162 7.11717 72.05425 -9.53063 -5.92938 -26.48697 -6.88103 -2.50211 -1.93738 92.51562 4.89066 0.73825 -46.55589 -6.57756 2.80391 2.06809
-0.89984 -0.02059 0.08857 -204.66512 -65.34169 -18.73691 7.63063 0.09101 2.54905 18.91186 -14.72904 -0.83057 57.74566 -10.95101 46.61512 41.15493 84.31169 1.22999 -0.35121 54.35898 9.61092 -47.30199 38.97793 -80.93028 3.60909 7.1587 70.41713 -9.32858 -6.11304 -25.78952 -6.93215 -2.47635 -1.92382 90.97331 5.22491 1.05648 -46.08124 -6.56898 2.74694 2.03731
-0.90254 -0.01954 0.08725 -204.00983 -64.39172 -18.22222 8.46062 -0.02576 2.51322 18.68981 -14.20445 -0.83057 55.91142 -11.7829 47.29747 42.61579 84.31396 1.36407 -0.18534 53.13627 10.42684 -48.44186 40.35451 -80.83332 3.75531 7.19325 68.7964 -9.1264 -6.27714 -25.0598 -6.98504 -2.45273 -1.91066 89.46239 5.56634 1.39426 -45.60652 -6.56101 2.68839 2.00568
-0.90523 -0.01853 0.0859 -203.35273 -63.37972 -17.7374 9.17195 -0.12152 2.47544 18.46573 -13.70947 -0.83058 54.10182 -12.56583 47.84594 44.07058 84.30752 1.49122 -0.12161 51.98279 11.22926 -49.45437 41.72483 -80.71972 3.887 7.23619 67.1358 -8.903 -6.39898 -24.39604 -7.03737 -2.43499 -1.90192 87.87256 5.94786 1.81707 -45.12319 -6.55323 2.61654 1.96714
-0.90785 -0.01764 0.08442 -202.67297 -62.18322 -17.31742 9.54853 -0.15935 2.43719 18.24837 -13.29697 -0.83058 52.34552 -13.22936 48.05796 45.52647 84.28039 1.59964 -0.34425 50.99512 11.98699 -50.12332 43.06646 -80.61764 3.96956 7.31814 65.33299 -8.63312 -6.48853 -23.88225 -7.08634 -2.42309 -1.90039 86.05322 6.40526 2.38369 -44.61713 -6.54528 2.51937 1.91543
